<svg width="24" height="24" viewBox="0 0 24 24" fill="none" xmlns="http://www.w3.org/2000/svg">
<path d="M8.71877 6.05571C8.28726 6.16889 7.99263 6.32827 7.67711 6.62394C7.37784 6.90805 7.1644 7.26147 7.05536 7.65877C7.01361 7.80891 7.00432 7.90131 7.00432 8.24086C7.00432 8.61506 7.00896 8.66126 7.06928 8.85298C7.18064 9.22256 7.3964 9.57598 7.65391 9.81158C7.71191 9.86471 7.75599 9.91091 7.75135 9.91322C7.74671 9.91784 7.66551 9.95711 7.57039 10.0033C7.25024 10.1604 6.95097 10.4491 6.80481 10.7471C6.76537 10.8233 6.71433 10.9735 6.68649 11.0797C6.60761 11.3939 6.63081 11.7542 6.84193 13.4612C6.87441 13.7222 6.90689 13.974 6.91385 14.0202C6.92545 14.1057 6.92545 14.108 6.85353 14.108C6.76073 14.108 6.65169 14.0525 6.61921 13.9902C6.60529 13.9648 6.57281 13.7546 6.54729 13.5236C6.48929 12.9807 6.44754 12.8468 6.27354 12.6735C6.06706 12.468 6.06242 12.468 5.06716 12.468C4.22734 12.468 4.21574 12.468 4.10206 12.5234C3.98142 12.5788 3.86775 12.6897 3.79583 12.8214C3.75871 12.886 3.75407 12.9669 3.75407 13.519C3.75407 14.1057 3.75639 14.1496 3.80279 14.2466C3.87239 14.3944 4.02318 14.5399 4.13454 14.57L4.22966 14.5954V14.8125C4.22966 14.958 4.22038 15.0319 4.20414 15.0319C4.1299 15.0319 3.78191 15.2722 3.60095 15.4477C3.17872 15.8589 3.0024 16.2723 3.00008 16.8683C2.99776 17.2517 3.04416 17.4758 3.19264 17.7691C3.44551 18.2773 3.95358 18.7 4.48717 18.8525C4.83517 18.9518 5.32468 18.9379 5.67499 18.8225C6.06242 18.6931 6.44986 18.4228 6.67721 18.1226L6.79321 17.9678H11.2174L15.6392 17.9655L15.7691 18.148C16.0545 18.5522 16.5324 18.8502 17.0822 18.9634C17.8548 19.125 18.7827 18.737 19.1771 18.0879L19.2514 17.9678L19.5878 17.9655C20.01 17.9655 20.1562 17.9424 20.3719 17.8384C20.6735 17.6952 20.9148 17.3996 20.9821 17.0877C20.9983 17.0115 21.0029 16.799 20.9983 16.5149C20.9797 15.718 20.9473 15.6718 19.8662 14.8749C19.0867 14.302 17.9615 13.4543 17.0126 12.7267C16.0846 12.0129 15.4374 11.5348 15.2958 11.4562C15.0986 11.3477 14.9247 11.3061 14.7066 11.3176C14.3725 11.3361 14.1103 11.5117 13.9665 11.8166C13.9016 11.9528 13.8923 11.9944 13.8946 12.1677C13.8946 12.3386 13.9039 12.3848 13.9665 12.5142C14.0059 12.5973 14.0686 12.6966 14.1034 12.7382C14.1405 12.7775 14.4003 12.9992 14.6811 13.2302C14.9618 13.4612 15.3167 13.7569 15.4698 13.8862C15.623 14.0156 15.9733 14.3066 16.247 14.5353C16.5208 14.7617 16.7667 14.9649 16.7922 14.9904C16.8386 15.0342 16.8386 15.0342 16.7853 15.0481C16.6878 15.0712 16.3677 15.2352 16.2261 15.3299C16.1519 15.3807 16.0081 15.5101 15.906 15.6186L15.7204 15.8173H15.4652C15.2216 15.8173 15.21 15.815 15.1543 15.7572C15.1242 15.7226 14.811 15.4546 14.4607 15.1613C13.129 14.0456 13.0246 13.9625 12.8135 13.8724C12.6882 13.8215 12.6604 13.8192 11.7533 13.8077C11.2406 13.8008 10.8183 13.7915 10.8114 13.7846C10.7835 13.7546 10.7464 13.6645 10.758 13.6529C10.7696 13.6414 11.1338 13.5467 12.092 13.3111C12.8135 13.1332 12.9434 13.0755 13.1986 12.826C13.426 12.6019 13.4932 12.4587 13.5048 12.1746C13.5164 11.9413 13.4863 11.8235 13.3772 11.6572L13.3216 11.5717L13.5791 11.3222C13.7229 11.1837 13.8552 11.0404 13.8737 11.0035C13.9526 10.8533 13.8969 10.6893 13.7484 10.6293C13.6069 10.5692 13.5489 10.6016 13.2056 10.9226L12.8901 11.2206L12.6256 11.2068L12.3611 11.1929L11.5282 11.4146C11.0712 11.5371 10.6722 11.6364 10.6443 11.6364C10.6142 11.6364 10.5562 11.6087 10.5167 11.574C10.4611 11.5278 10.011 10.9919 9.83467 10.7609C9.81611 10.7355 9.83931 10.7332 9.98315 10.7471C10.185 10.7656 10.4054 10.724 10.5817 10.6339C10.9134 10.463 11.287 9.9548 11.454 9.44662C11.5746 9.07473 11.5955 8.92921 11.5955 8.4603C11.5955 8.07455 11.5886 7.99601 11.5398 7.81584C11.2893 6.86186 10.5887 6.1943 9.66995 6.03261C9.37764 5.98179 8.96933 5.99103 8.71877 6.05571ZM9.50988 6.55695C9.72563 6.58698 10.0017 6.68169 10.1827 6.78794C10.3729 6.89882 10.6745 7.20141 10.7951 7.40468C10.9042 7.58716 11.0155 7.87128 10.9807 7.87128C10.9598 7.87128 10.2569 7.75347 9.79755 7.67263C9.56324 7.63105 9.41244 7.64722 9.25236 7.72576C9.09692 7.80198 8.97629 7.9221 8.91133 8.06531C8.86261 8.17156 8.85797 8.21776 8.85797 8.51805C8.85797 8.93383 8.89509 9.0447 9.10388 9.26876C9.26164 9.43507 9.41012 9.51823 10.0295 9.78617C10.2407 9.87857 10.4425 9.96635 10.4796 9.98252L10.5469 10.0102L10.4634 10.0749C10.3427 10.1673 10.2291 10.202 10.0504 10.2043C9.68851 10.2066 9.14796 10.0449 8.57957 9.76539C8.28958 9.62217 8.17358 9.55288 8.05294 9.442C7.85575 9.26414 7.69799 9.02853 7.60751 8.77444C7.53791 8.58503 7.53559 8.55962 7.53559 8.22931C7.53791 7.91748 7.54255 7.86435 7.59823 7.70266C7.86735 6.91037 8.65149 6.43684 9.50988 6.55695ZM10.352 8.32171C10.7348 8.391 11.055 8.44875 11.0642 8.44875C11.0944 8.44875 11.0526 8.89687 11.0062 9.07473C10.9807 9.17174 10.9297 9.31958 10.8903 9.40273L10.823 9.55519L10.236 9.30341C9.91355 9.16481 9.61195 9.02391 9.56556 8.99157C9.45188 8.91304 9.37764 8.77444 9.36372 8.61044C9.3382 8.34249 9.41476 8.19466 9.57484 8.19466C9.62123 8.19466 9.96923 8.25241 10.352 8.32171ZM8.75125 10.4422C8.83245 10.4768 8.93453 10.53 8.97629 10.5623C9.01805 10.5946 9.27092 10.888 9.53772 11.216C9.80451 11.544 10.0806 11.872 10.1479 11.9459C10.2894 12.1007 10.4564 12.1908 10.5979 12.1908C10.6513 12.1908 11.0944 12.0822 11.5839 11.9482C12.0757 11.8143 12.5096 11.7057 12.5467 11.7057C12.5861 11.7057 12.6697 11.7311 12.7369 11.7611C12.8645 11.8212 12.9597 11.9482 12.9898 12.0938C13.0269 12.2739 12.8483 12.5026 12.5745 12.632C12.4539 12.6874 11.4215 12.9507 10.4402 13.1771C10.185 13.2348 10.1827 13.2325 9.47276 12.5234C9.13404 12.1861 8.83477 11.8997 8.80461 11.8882C8.65613 11.8304 8.49606 11.902 8.46126 12.0383C8.42182 12.1954 8.4543 12.2439 8.94613 12.7428C9.20364 13.0038 9.46116 13.2695 9.51916 13.3319C9.72563 13.5536 10.004 13.7153 10.1827 13.7153C10.2546 13.7153 10.2615 13.7222 10.2731 13.8008C10.3126 14.0341 10.4077 14.1888 10.5724 14.2766C10.6652 14.3251 10.6931 14.3274 11.6535 14.339C12.5212 14.3482 12.6488 14.3551 12.7114 14.3898C12.7903 14.4337 13.0733 14.66 13.8969 15.3438L14.456 15.8057L13.992 15.8127L13.528 15.8173L13.1708 15.5008C12.3936 14.8125 12.3193 14.7732 11.6419 14.697C11.4633 14.6762 11.0364 14.6254 10.6907 14.5815C10.3474 14.5376 9.61659 14.4498 9.06677 14.3852C7.80703 14.2396 7.49384 14.1981 7.47296 14.1796C7.45672 14.1634 7.44512 14.0826 7.3036 12.8329C7.17832 11.7196 7.15976 11.4331 7.1992 11.2645C7.28968 10.8788 7.58199 10.5646 7.98103 10.4214C8.20142 10.3429 8.53086 10.3521 8.75125 10.4422ZM15.0082 11.8905C15.1033 11.9321 15.9431 12.5534 17.117 13.452C17.6645 13.8724 18.7943 14.7178 19.321 15.1035C19.437 15.1867 19.6759 15.3622 19.8522 15.4962C20.0286 15.6279 20.2095 15.7619 20.2513 15.7942C20.293 15.8265 20.3301 15.8589 20.3301 15.8681C20.3301 15.8797 20.075 15.8866 19.7641 15.8866C19.2027 15.8866 19.198 15.8866 19.1632 15.8335C18.8593 15.3715 18.2491 15.0134 17.6529 14.9511C17.4952 14.9326 17.4928 14.9326 17.2933 14.7571C17.1843 14.6577 16.9268 14.4406 16.7226 14.2697C16.5185 14.0987 16.2169 13.8446 16.0498 13.7037C15.8851 13.5652 15.5093 13.251 15.2146 13.0108C14.5395 12.4564 14.4467 12.3663 14.4259 12.2531C14.4003 12.1261 14.4305 12.0175 14.5094 11.939C14.6323 11.8166 14.7994 11.8004 15.0082 11.8905ZM5.92787 13.0685C5.97194 13.1286 5.99282 13.2626 6.0369 13.7753C6.05082 13.9163 6.07866 14.0779 6.09954 14.1334C6.24802 14.5099 6.46842 14.6185 7.2456 14.7062C7.48224 14.734 8.0251 14.7963 8.45198 14.8471C8.87885 14.898 9.44956 14.9649 9.71635 14.9973C11.7533 15.2352 11.8739 15.2514 12.0015 15.286C12.1639 15.3299 12.3217 15.45 12.7161 15.8196C12.9365 16.0275 13.1708 16.2261 13.2357 16.2608L13.3517 16.3255H14.4143H15.4745L15.442 16.4456C15.391 16.6281 15.3794 17.0438 15.4165 17.254L15.449 17.4342H11.2475H7.04608L7.08784 17.2309C7.14584 16.9676 7.13192 16.5772 7.06 16.3255C6.80249 15.4315 5.91859 14.8056 4.97436 14.8518L4.77021 14.861L4.75629 14.6554C4.73541 14.3505 4.61941 14.1634 4.41757 14.1149C4.27838 14.0826 4.27606 14.0733 4.27606 13.5605C4.27606 13.1217 4.27838 13.0893 4.32246 13.0454C4.36886 12.9992 4.39438 12.9992 5.12748 13.0038L5.88379 13.0108L5.92787 13.0685ZM5.51723 15.4569C6.02066 15.6163 6.41506 16.0229 6.54033 16.5126C6.71201 17.1778 6.35242 17.917 5.70283 18.2311C5.11356 18.5152 4.42917 18.3974 3.9791 17.9331C3.79583 17.746 3.71463 17.6144 3.63575 17.3903C3.32952 16.5149 3.83063 15.6279 4.75165 15.4108C4.95348 15.3646 5.28524 15.383 5.51723 15.4569ZM17.8478 15.5193C18.2607 15.6279 18.6343 15.9282 18.8199 16.3024C19.1191 16.9076 18.9892 17.6167 18.4951 18.0764C18.3512 18.208 18.1912 18.3004 17.9499 18.3859C17.7643 18.4529 17.7179 18.4598 17.4766 18.4598C17.059 18.4621 16.8085 18.3766 16.4929 18.1272C16.0986 17.8153 15.8666 17.2333 15.9408 16.7528C16.0081 16.3208 16.2447 15.9536 16.6136 15.7041C16.9685 15.4639 17.3931 15.4015 17.8478 15.5193ZM20.4577 16.7089C20.4577 17.0415 20.4345 17.1224 20.2953 17.261C20.1701 17.3834 20.0471 17.425 19.7618 17.4411C19.6226 17.4504 19.4926 17.4481 19.4764 17.4388C19.4555 17.425 19.4532 17.3903 19.4718 17.2956C19.5042 17.1247 19.4996 16.8082 19.4602 16.5911C19.4416 16.4895 19.4254 16.404 19.4254 16.404C19.4254 16.4017 19.6574 16.4017 19.9427 16.404L20.4577 16.4086V16.7089Z" fill="currentColor"/>
<path d="M3.51172 14.083C3.5154 14.1386 3.52137 14.1881 3.5332 14.2354C3.54555 14.2846 3.56134 14.3224 3.57617 14.3535C3.6257 14.4586 3.70014 14.5558 3.77832 14.6318C3.83223 14.6842 3.90156 14.7394 3.97949 14.7773V14.8125C3.97949 14.8289 3.97777 14.8439 3.97754 14.8574C3.92343 14.8876 3.86181 14.9257 3.80078 14.9678C3.73774 15.0113 3.67018 15.0617 3.60547 15.1133L3.42676 15.2686C3.19758 15.4917 3.02602 15.7247 2.91308 15.9912C2.82836 16.1911 2.77924 16.4023 2.75976 16.6318L2.75 16.8672C2.74752 17.2819 2.80047 17.5462 2.96972 17.8809C3.25362 18.4509 3.81722 18.9209 4.41894 19.0928C4.81696 19.2063 5.35717 19.19 5.75293 19.0596C6.12993 18.9337 6.50859 18.6899 6.77148 18.4004L6.87695 18.2734L6.91797 18.2178L15.5098 18.2168L15.5654 18.293C15.892 18.7551 16.4283 19.0827 17.0312 19.207C17.4744 19.2997 17.9512 19.2348 18.3682 19.0606C18.784 18.8867 19.1598 18.5969 19.3896 18.2197L19.3906 18.2178L19.5898 18.2158C20.0227 18.2158 20.2131 18.192 20.4785 18.0645C20.8457 17.8901 21.1419 17.5329 21.2266 17.1406C21.2401 17.0768 21.2455 16.9814 21.248 16.8857V16.5088C21.239 16.1219 21.2306 15.8343 21.0361 15.5527C20.9441 15.4195 20.8177 15.297 20.6562 15.1631C20.4944 15.0288 20.2834 14.8719 20.0146 14.6738C19.6258 14.3881 19.1499 14.0331 18.6533 13.6592L17.165 12.5283C16.7004 12.1709 16.305 11.8722 16.0078 11.6523C15.7186 11.4385 15.5056 11.2865 15.417 11.2373C15.1811 11.1075 14.9602 11.0542 14.6934 11.0684C14.2679 11.092 13.9232 11.3221 13.7402 11.71C13.73 11.7315 13.7203 11.7539 13.7109 11.7754C13.6923 11.7176 13.6664 11.6654 13.6377 11.6133L13.7529 11.502L13.957 11.2939C13.9853 11.2634 14.0112 11.2343 14.0322 11.209C14.0465 11.1918 14.0734 11.1568 14.0928 11.1201H14.0947C14.2361 10.8511 14.1396 10.5179 13.8418 10.3975L13.8408 10.3984C13.7953 10.3794 13.7318 10.3555 13.6553 10.3545C13.5714 10.3534 13.4981 10.3782 13.4336 10.4131C13.3239 10.4726 13.1978 10.5882 13.0352 10.7402L13.0342 10.7412L12.7969 10.9658L12.6387 10.957L12.374 10.9434L12.335 10.9414L12.2969 10.9512L11.4639 11.1729C11.2364 11.2338 11.0231 11.2894 10.8643 11.3291C10.7851 11.3489 10.7201 11.3643 10.6738 11.375L10.6709 11.376C10.6685 11.3734 10.6656 11.37 10.6621 11.3662C10.6462 11.3489 10.6253 11.3243 10.5996 11.2949C10.5484 11.2363 10.4821 11.1596 10.4121 11.0762C10.3851 11.044 10.3584 11.0105 10.3311 10.9775C10.4589 10.9541 10.5834 10.9136 10.6953 10.8564C10.9092 10.7462 11.114 10.5421 11.2812 10.3145C11.4087 10.141 11.5238 9.9417 11.6123 9.73438L11.6914 9.52442C11.7532 9.33397 11.7941 9.18792 11.8174 9.02539C11.8404 8.86506 11.8457 8.6959 11.8457 8.45996C11.8457 8.07066 11.8389 7.96437 11.7812 7.75098C11.5245 6.77527 10.8294 6.05991 9.90234 5.82618L9.71289 5.78614C9.39131 5.73023 8.94643 5.73857 8.65625 5.81348C8.18657 5.93668 7.85323 6.11589 7.50586 6.44141L7.50488 6.44239C7.17325 6.75722 6.9358 7.15021 6.81445 7.5918C6.76316 7.77623 6.7539 7.89732 6.7539 8.24121C6.75391 8.42418 6.75526 8.54357 6.76562 8.64161C6.77698 8.74901 6.79947 8.82736 6.83105 8.92774C6.93296 9.26451 7.11353 9.59087 7.33887 9.84571C7.02123 10.0327 6.73354 10.3239 6.58008 10.6367C6.52899 10.7376 6.47348 10.9054 6.44433 11.0166V11.0186C6.3959 11.2115 6.38313 11.4099 6.40625 11.7647C6.41886 11.9581 6.44214 12.2041 6.47851 12.5283C6.4688 12.5181 6.46044 12.5063 6.45019 12.4961C6.40309 12.4492 6.34483 12.3907 6.27344 12.3447C6.19374 12.2936 6.10835 12.2641 6.00781 12.2471C5.82974 12.2169 5.55054 12.2178 5.06738 12.2178C4.65245 12.2178 4.42907 12.2181 4.29785 12.2256C4.23065 12.2294 4.17348 12.2352 4.12012 12.249C4.0668 12.2628 4.02724 12.2827 3.99805 12.2969C3.99674 12.2975 3.99544 12.2982 3.99414 12.2988H3.99219C3.81867 12.3804 3.66915 12.531 3.57617 12.7012C3.53058 12.7831 3.51803 12.8667 3.51172 12.9727C3.50538 13.0791 3.50391 13.2457 3.5039 13.5186C3.5039 13.8075 3.50465 13.9762 3.51172 14.083ZM8.6084 8.51758C8.6084 8.72506 8.61598 8.89343 8.66504 9.04297C8.71742 9.20242 8.80839 9.31873 8.9209 9.43946L8.92285 9.44043C9.09259 9.61938 9.26145 9.71896 9.68847 9.90918C9.40885 9.84778 9.06176 9.72507 8.68945 9.542L8.69043 9.54102C8.40299 9.39907 8.31421 9.34286 8.22168 9.25782L8.2207 9.25684C8.05445 9.10689 7.91942 8.90569 7.84277 8.69043L7.84179 8.68848C7.80731 8.59464 7.79832 8.56361 7.79297 8.52246C7.78627 8.47096 7.78516 8.4009 7.78515 8.2295C7.78634 8.07109 7.7884 7.99466 7.79492 7.93848C7.79764 7.915 7.8016 7.89469 7.80762 7.8711L7.83496 7.78418C8.06392 7.11011 8.7312 6.70053 9.47558 6.80469L9.62304 6.83399C9.77666 6.8727 9.94212 6.93727 10.0557 7.00391C10.1235 7.04342 10.2299 7.12971 10.3379 7.23829C10.4451 7.34612 10.5347 7.45667 10.5801 7.53321C10.5843 7.54029 10.5875 7.54817 10.5918 7.55567C10.357 7.51627 10.0687 7.46687 9.84082 7.42676C9.56961 7.37868 9.36217 7.39335 9.14258 7.50098C8.94071 7.59998 8.77497 7.76051 8.68359 7.96192C8.65186 8.03123 8.62921 8.09543 8.61816 8.19043C8.60894 8.27008 8.6084 8.37245 8.6084 8.51758ZM10.8906 9.40235L10.9531 9.24414C10.974 9.18479 10.9931 9.1237 11.0059 9.0752C11.0521 8.89782 11.0941 8.45164 11.0645 8.44922L10.3516 8.32129L9.83691 8.23243C9.69715 8.20947 9.59902 8.19448 9.57519 8.19434L9.51855 8.20118C9.41444 8.22861 9.35916 8.33758 9.35937 8.51563L9.36328 8.61036C9.37372 8.7334 9.41875 8.84207 9.48828 8.92188L9.56543 8.99121C9.5886 9.00737 9.67558 9.05093 9.79687 9.10743L10.2363 9.30371L10.8232 9.55567L10.8906 9.40235ZM10.335 9.07325C10.1757 9.00482 10.0213 8.93628 9.90234 8.88086C9.84306 8.85325 9.7937 8.82898 9.75683 8.81055C9.72858 8.79642 9.71393 8.78878 9.70898 8.78614C9.66757 8.75752 9.62209 8.69265 9.61328 8.58887L9.6123 8.58692C9.60719 8.53326 9.6078 8.4919 9.61133 8.46192C9.61178 8.45811 9.61277 8.45446 9.61328 8.45118C9.61716 8.45172 9.62147 8.4515 9.62597 8.45215C9.66876 8.45831 9.72727 8.46709 9.79687 8.47852C9.9358 8.50134 10.1171 8.53291 10.3076 8.56739C10.4987 8.60199 10.6744 8.63409 10.8037 8.65723C10.8076 8.65792 10.8117 8.65949 10.8154 8.66016C10.8151 8.66399 10.8158 8.66797 10.8154 8.67188C10.8033 8.80222 10.7825 8.94174 10.7646 9.01075L10.7178 9.16114C10.7097 9.1841 10.6995 9.20581 10.6914 9.22657L10.335 9.07325ZM13.9922 15.8125L14.4561 15.8057L13.8965 15.3438L13.0244 14.627C12.841 14.4795 12.7504 14.4116 12.7109 14.3897L12.6416 14.3682C12.5385 14.3512 12.3037 14.3458 11.6533 14.3389L10.7871 14.3213C10.6489 14.3132 10.6186 14.3006 10.5723 14.2764C10.4077 14.1886 10.3129 14.0339 10.2734 13.8008L10.2646 13.7539C10.2544 13.719 10.2364 13.7148 10.1826 13.7148L10.1113 13.708C9.93563 13.6741 9.70017 13.5259 9.51953 13.332L8.94629 12.7432L8.65722 12.4443C8.4425 12.2129 8.43136 12.1559 8.46094 12.0381C8.4958 11.9019 8.65628 11.83 8.80469 11.8877C8.83484 11.8992 9.13395 12.1862 9.47265 12.5234C10.1826 13.2326 10.1852 13.2345 10.4404 13.1768C11.4211 12.9505 12.4526 12.6875 12.5742 12.6318C12.8479 12.5025 13.0273 12.2739 12.9902 12.0938L12.9551 11.9893C12.9097 11.8893 12.833 11.8058 12.7373 11.7607L12.6318 11.7217C12.5976 11.7116 12.5667 11.7061 12.5469 11.7061L12.2353 11.7764L11.584 11.9482C11.0945 12.0822 10.651 12.1904 10.5977 12.1904C10.4562 12.1903 10.2889 12.101 10.1475 11.9463C10.0802 11.8724 9.80486 11.5438 9.53808 11.2158L9.17285 10.7783C9.07143 10.6604 8.99781 10.5792 8.97656 10.5625L8.8789 10.5029C8.83797 10.4812 8.79164 10.4597 8.75097 10.4424C8.55811 10.3636 8.28203 10.3469 8.06836 10.3965L7.98144 10.4219C7.63237 10.5472 7.36425 10.8026 7.24219 11.1231L7.19922 11.2647C7.16968 11.3911 7.17234 11.5839 7.22851 12.1416L7.30371 12.833C7.44494 14.0801 7.45646 14.1633 7.47265 14.1797C7.4831 14.1889 7.56704 14.2035 7.80566 14.2344L9.0664 14.3848C9.61604 14.4494 10.3469 14.5372 10.6904 14.5811C11.0359 14.6249 11.4628 14.6765 11.6416 14.6973C12.1497 14.7544 12.3187 14.7907 12.6992 15.0957L13.1709 15.501L13.5283 15.8174L13.9922 15.8125ZM9.0957 14.1367C8.46597 14.064 8.07432 14.017 7.83789 13.9863C7.77703 13.9784 7.72689 13.9716 7.68652 13.9658C7.68537 13.957 7.68486 13.9475 7.68359 13.9375C7.66123 13.7611 7.6226 13.4303 7.55176 12.8047C7.48904 12.2473 7.45438 11.9029 7.43945 11.6777C7.42429 11.4489 7.43171 11.3669 7.44238 11.3213C7.51181 11.0257 7.73862 10.7745 8.06445 10.6572C8.2253 10.5999 8.49133 10.6065 8.65625 10.6738C8.68931 10.6881 8.72775 10.7057 8.76172 10.7236C8.77909 10.7328 8.79381 10.7419 8.80566 10.749C8.8169 10.7558 8.82242 10.7592 8.82324 10.7598C8.81249 10.7514 8.81996 10.7564 8.85937 10.7998C8.89101 10.8347 8.93328 10.8831 8.9834 10.9414C9.08346 11.0578 9.21167 11.2116 9.34375 11.374C9.60994 11.7013 9.89021 12.0344 9.96289 12.1143L10.0996 12.2422C10.2455 12.3595 10.4186 12.4403 10.5977 12.4404L10.6797 12.4316C10.7021 12.4276 10.7292 12.4224 10.7588 12.416C10.8187 12.4031 10.897 12.3845 10.9873 12.3623C11.1684 12.3178 11.4041 12.2569 11.6504 12.1895C11.895 12.1228 12.1242 12.063 12.2969 12.0195C12.3834 11.9978 12.4547 11.9805 12.5059 11.9688C12.5236 11.9647 12.5383 11.9624 12.5498 11.96C12.553 11.9608 12.5567 11.9608 12.5605 11.9619C12.5833 11.9686 12.609 11.9792 12.6318 11.9893C12.6812 12.0133 12.7296 12.0696 12.7451 12.1445C12.7432 12.1354 12.7514 12.1635 12.7012 12.2285C12.6546 12.2886 12.5753 12.3551 12.4697 12.4053C12.4664 12.4065 12.45 12.4117 12.4141 12.4229C12.3756 12.4348 12.3241 12.4501 12.2607 12.4678C12.1342 12.5031 11.9654 12.5484 11.7686 12.5986C11.3747 12.6992 10.8727 12.8208 10.3838 12.9336C10.351 12.941 10.3314 12.9448 10.3154 12.9473C10.3019 12.9494 10.2976 12.9492 10.2978 12.9492C10.2927 12.947 10.2826 12.9415 10.2666 12.9307C10.2246 12.9022 10.1625 12.8499 10.0596 12.752L9.64941 12.3467C9.47924 12.1773 9.31799 12.0192 9.19531 11.9023C9.13426 11.8442 9.08127 11.7949 9.04101 11.7588C9.02123 11.741 9.00234 11.725 8.98633 11.7119C8.9785 11.7055 8.969 11.6976 8.95898 11.6904C8.95558 11.688 8.92875 11.6678 8.89355 11.6543L8.89258 11.6553C8.63343 11.5559 8.2977 11.6674 8.21875 11.9766C8.20681 12.0241 8.19136 12.0969 8.2041 12.1816C8.21698 12.2672 8.25457 12.3399 8.29883 12.4043C8.37926 12.5212 8.53065 12.6766 8.76855 12.918C9.02622 13.1791 9.28055 13.4424 9.33594 13.502C9.4556 13.6305 9.59662 13.7424 9.73633 13.8232C9.831 13.878 9.9391 13.9266 10.0488 13.9502C10.0793 14.0694 10.1278 14.1772 10.1953 14.2705L9.0957 14.1367ZM19.7637 15.8867C20.074 15.8867 20.3292 15.8797 20.3301 15.8682C20.3301 15.8589 20.2927 15.8263 20.251 15.7939L19.8525 15.4961C19.6763 15.3622 19.4374 15.1867 19.3213 15.1035C18.7947 14.7178 17.6648 13.8726 17.1172 13.4522L15.6582 12.3496C15.2896 12.0768 15.0554 11.9114 15.0078 11.8906C14.8252 11.8119 14.6748 11.8145 14.5576 11.8984L14.5098 11.9395C14.4507 11.9983 14.4185 12.0735 14.417 12.1611L14.4258 12.2529C14.4414 12.3378 14.4975 12.4101 14.8096 12.6748L15.2148 13.0107C15.5095 13.251 15.8851 13.5655 16.0498 13.7041L16.7227 14.2695C16.9266 14.4403 17.1838 14.6574 17.293 14.7568C17.4925 14.9324 17.4956 14.9327 17.6533 14.9512C18.2493 15.0136 18.8592 15.3713 19.1631 15.833C19.1979 15.8861 19.2026 15.8867 19.7637 15.8867ZM19.3252 15.6318C18.9653 15.1352 18.3154 14.7687 17.6787 14.7022L17.6777 14.7031C17.6374 14.6984 17.6211 14.6958 17.6094 14.6934C17.6074 14.6929 17.6061 14.6926 17.6055 14.6924C17.6026 14.6908 17.5936 14.6847 17.5693 14.665C17.5438 14.6443 17.5101 14.6165 17.4609 14.5732L17.4619 14.5723C17.3481 14.4686 17.0852 14.2476 16.8828 14.0781L16.2109 13.5127L15.373 12.8174C15.0329 12.5381 14.8496 12.3838 14.748 12.2861C14.6977 12.2377 14.6774 12.2132 14.6699 12.2022C14.6592 12.1468 14.6745 12.1272 14.6855 12.1162C14.7077 12.0942 14.7274 12.0863 14.751 12.084C14.7798 12.0812 14.8305 12.0862 14.9092 12.1201C14.9149 12.1237 14.9249 12.1313 14.9404 12.1416C14.9716 12.1622 15.0144 12.1913 15.0684 12.2295C15.1767 12.3061 15.3261 12.4148 15.5098 12.5508C15.8768 12.8225 16.3787 13.2018 16.9648 13.6504L18.0771 14.4912C18.4945 14.8038 18.9089 15.1123 19.1728 15.3057L19.1758 15.3066C19.2732 15.3765 19.4583 15.5149 19.6191 15.6357C19.4698 15.6356 19.3807 15.6343 19.3252 15.6318ZM15.3291 15.5664C15.3232 15.5662 15.318 15.5656 15.3135 15.5654C15.293 15.5457 15.2693 15.5227 15.248 15.5039C15.2076 15.4681 15.1541 15.4205 15.0908 15.3662C14.964 15.2574 14.7967 15.1168 14.6211 14.9697C13.9571 14.4135 13.5941 14.1103 13.3711 13.9356C13.143 13.7568 13.0443 13.6994 12.9111 13.6426L12.9072 13.6406C12.873 13.6267 12.8319 13.6108 12.7764 13.5986C12.7237 13.5871 12.665 13.5807 12.5918 13.5762C12.4906 13.57 12.341 13.569 12.1045 13.5654C12.12 13.5616 12.1356 13.5576 12.1514 13.5537C12.5082 13.4657 12.7432 13.4022 12.9209 13.3242C13.1129 13.2399 13.2337 13.1411 13.373 13.0049L13.374 13.0039C13.4963 12.8834 13.5942 12.7671 13.6592 12.6289C13.6748 12.5957 13.6871 12.562 13.6982 12.5283C13.7109 12.5604 13.7258 12.5913 13.7412 12.6231C13.7872 12.7195 13.8606 12.8369 13.9121 12.8984L13.9219 12.9102C13.9524 12.9424 14.0402 13.0186 14.1387 13.1025C14.2446 13.1928 14.3812 13.3066 14.5225 13.4229C14.8026 13.6534 15.1565 13.9487 15.3086 14.0772C15.4624 14.2071 15.8144 14.4999 16.0869 14.7275C16.1879 14.8111 16.2857 14.8917 16.3691 14.9609C16.267 15.014 16.16 15.0732 16.0869 15.1221L16.085 15.124C15.9897 15.1893 15.8315 15.3325 15.7236 15.4473L15.6123 15.5674H15.4648C15.4033 15.5674 15.3607 15.5674 15.3291 15.5664ZM14.4141 16.5752V16.3252H13.3516L13.2353 16.2607L13.1582 16.2061C13.0545 16.1258 12.881 15.9752 12.7158 15.8193C12.322 15.4503 12.1642 15.3301 12.002 15.2861C11.8744 15.2515 11.7533 15.2349 9.71679 14.9971C9.45002 14.9647 8.87901 14.8975 8.45215 14.8467L7.24512 14.7061L6.97949 14.6719C6.41469 14.5872 6.22953 14.463 6.09961 14.1338C6.07873 14.0784 6.05103 13.9163 6.03711 13.7754L5.98242 13.252C5.96619 13.147 5.94976 13.0984 5.92773 13.0684L5.88379 13.0107L5.12793 13.0039L4.46777 13.0059C4.36368 13.0111 4.34549 13.0228 4.32226 13.0459C4.3004 13.0677 4.28925 13.0869 4.2832 13.1553L4.27637 13.5606C4.27637 13.9456 4.27734 14.0467 4.33691 14.0869L4.41797 14.1152C4.61949 14.1639 4.73496 14.3507 4.75586 14.6553L4.77051 14.8613L4.97461 14.8516C5.85978 14.8084 6.69221 15.356 7.00488 16.1611L7.05957 16.3252C7.13144 16.5768 7.14577 16.9672 7.08789 17.2305L7.0459 17.4346H15.4492L15.416 17.2539C15.3789 17.0436 15.3914 16.6277 15.4424 16.4453L15.4746 16.3252H14.4141V16.5752H15.165C15.155 16.6583 15.149 16.7476 15.1465 16.832C15.1429 16.9495 15.1478 17.0749 15.1582 17.1846H7.34961C7.39419 16.8909 7.37516 16.5173 7.30078 16.2568L7.2998 16.2559C7.01294 15.2609 6.04395 14.5695 5.00097 14.6025C4.97142 14.2855 4.83839 13.9939 4.53125 13.8916C4.5306 13.88 4.52883 13.8663 4.52832 13.8506C4.52609 13.7821 4.52637 13.69 4.52637 13.5606C4.52637 13.4135 4.52868 13.3184 4.53027 13.2549C4.6346 13.2523 4.81129 13.2529 5.125 13.2549L5.72851 13.2598C5.73012 13.2687 5.73357 13.2785 5.73535 13.29C5.75009 13.3855 5.76594 13.5392 5.78808 13.7969V13.7998C5.79566 13.8765 5.80698 13.9584 5.81933 14.0293C5.83046 14.0932 5.84548 14.1692 5.86523 14.2217L5.86719 14.2256C5.95742 14.4542 6.08501 14.6322 6.32519 14.752C6.48649 14.8324 6.69034 14.8819 6.94531 14.9199L7.21777 14.9551C7.45615 14.983 7.99692 15.045 8.42285 15.0957C8.85058 15.1466 9.4201 15.2128 9.68652 15.2451C10.7055 15.3641 11.2448 15.4279 11.5439 15.4658C11.8447 15.504 11.891 15.5153 11.9355 15.5273C12.0033 15.5457 12.0838 15.5891 12.291 15.7705L12.5449 16.002C12.6578 16.1085 12.7744 16.213 12.8721 16.2959C12.9209 16.3373 12.9664 16.3745 13.0049 16.4043C13.0375 16.4295 13.078 16.4596 13.1143 16.4795L13.2295 16.5439L13.2871 16.5752H14.4141ZM13.3369 15.3135C12.9565 14.9766 12.7184 14.771 12.4853 14.6484C12.451 14.6304 12.415 14.6181 12.3809 14.6035C12.4152 14.6046 12.446 14.6032 12.4727 14.6045C12.5489 14.6082 12.5853 14.6132 12.5996 14.6152C12.602 14.6169 12.605 14.6187 12.6084 14.6211C12.6217 14.6303 12.6404 14.6433 12.6641 14.6611C12.7114 14.6969 12.7775 14.7485 12.8682 14.8213C13.05 14.9675 13.3255 15.1943 13.7373 15.5361L13.7715 15.5654L13.6211 15.5664L13.3369 15.3135ZM3.97949 17.9336C4.42957 18.3975 5.11403 18.5155 5.70312 18.2314C6.35262 17.9173 6.71167 17.1779 6.54004 16.5127C6.41479 16.0231 6.02085 15.6165 5.51758 15.457L5.32812 15.4121C5.19438 15.3893 5.05004 15.3805 4.92383 15.3877L4.75195 15.4111C3.83093 15.6283 3.32951 16.5152 3.63574 17.3906C3.69487 17.5585 3.75557 17.6744 3.85937 17.8008L3.97949 17.9336ZM17.4766 18.46C17.7178 18.46 17.7646 18.4527 17.9502 18.3857C18.1913 18.3003 18.3513 18.2078 18.4951 18.0762C18.989 17.6166 19.1193 16.9078 18.8203 16.3027L18.7422 16.166C18.5407 15.8562 18.2091 15.6146 17.8477 15.5195C17.4499 15.4165 17.0752 15.4509 16.75 15.6221L16.6133 15.7041C16.2445 15.9536 16.0077 16.3211 15.9404 16.7529C15.8756 17.1732 16.0452 17.6712 16.3525 17.9981L16.4932 18.127C16.8087 18.3764 17.059 18.4623 17.4766 18.46ZM5.59375 18.0068C5.09988 18.2446 4.53172 18.1441 4.1582 17.7588L4.15722 17.7578C3.9989 17.5961 3.93709 17.4958 3.87109 17.3086C3.61591 16.5791 4.02638 15.8389 4.80859 15.6543C4.96129 15.6194 5.24628 15.6331 5.4414 15.6953L5.59668 15.7549C5.9461 15.9163 6.20797 16.2239 6.29785 16.5752C6.43767 17.1171 6.14368 17.7409 5.59375 18.0068ZM17.4756 18.21C17.2841 18.211 17.1461 18.1919 17.0264 18.1514C16.9072 18.111 16.7913 18.0436 16.6484 17.9307C16.3226 17.673 16.1275 17.1799 16.1875 16.791L16.2158 16.6582C16.2955 16.3546 16.4801 16.0963 16.7539 15.9111C17.0065 15.7402 17.3053 15.6756 17.6396 15.7305L17.7852 15.7617C18.1298 15.8527 18.4432 16.106 18.5957 16.4131C18.8458 16.9188 18.7385 17.5082 18.3262 17.8926C18.2126 17.9965 18.0834 18.0735 17.8662 18.1504C17.7751 18.1833 17.7348 18.195 17.6953 18.2012C17.6523 18.2078 17.5978 18.21 17.4756 18.21ZM20.208 16.709C20.208 16.8787 20.2002 16.9474 20.1885 16.9873C20.1821 17.0091 20.1744 17.0287 20.1211 17.082L20.0654 17.1279C20.0476 17.1393 20.0294 17.1473 20.0088 17.1543C19.9592 17.171 19.8841 17.1837 19.748 17.1914H19.7451C19.7415 17.1916 19.7379 17.1922 19.7344 17.1924C19.7473 17.0268 19.7412 16.825 19.7197 16.6533C19.7865 16.6536 19.8614 16.6537 19.9404 16.6543L19.9424 16.4043C19.6633 16.402 19.4354 16.4021 19.4258 16.4043L19.46 16.5908C19.4994 16.808 19.5042 17.125 19.4717 17.2959C19.4532 17.3903 19.4558 17.4246 19.4766 17.4385C19.4928 17.4477 19.6225 17.4506 19.7617 17.4414C20.047 17.4252 20.1697 17.3831 20.2949 17.2607C20.4341 17.1222 20.458 17.0415 20.458 16.709V16.4082L19.9424 16.4043L19.9404 16.6543L20.208 16.6572V16.709ZM8.86621 8.21875C8.87345 8.15654 8.88684 8.11843 8.91113 8.06543C8.97605 7.9223 9.09664 7.80182 9.25195 7.72559C9.37193 7.66673 9.48711 7.64308 9.63574 7.65235L9.79785 7.67286C10.2555 7.75339 10.9546 7.87021 10.9805 7.8711C11.0153 7.8711 10.904 7.58678 10.7949 7.4043C10.6741 7.20104 10.3727 6.89891 10.1826 6.78809C10.0017 6.68184 9.72552 6.58667 9.50976 6.55664C8.65144 6.43661 7.86773 6.91088 7.59863 7.70313C7.54305 7.86459 7.53747 7.91785 7.53515 8.2295C7.53515 8.47752 7.53722 8.55347 7.56738 8.65625L7.60742 8.77442C7.6979 9.02851 7.85554 9.26453 8.05273 9.44239C8.1733 9.55318 8.28938 9.62254 8.5791 9.76563C9.14749 10.0451 9.68887 10.2064 10.0508 10.2041C10.229 10.2018 10.3425 10.1673 10.4629 10.0752L10.5469 10.0098L10.4795 9.98243C10.442 9.9661 10.2401 9.87842 10.0293 9.78614L9.64551 9.61524C9.33532 9.47113 9.22178 9.39324 9.10351 9.26856C8.89496 9.0447 8.8584 8.93318 8.8584 8.51758L8.86621 8.21875ZM4.22949 14.5957L4.13476 14.5703L4.09082 14.5537C3.98645 14.5037 3.86359 14.3754 3.80273 14.2461L3.77539 14.1748C3.75509 14.0941 3.7539 13.9591 3.7539 13.5186L3.76074 12.9873C3.76654 12.8901 3.77734 12.8536 3.7959 12.8213C3.86782 12.6897 3.98193 12.5789 4.10254 12.5234C4.15918 12.4958 4.1905 12.4815 4.3125 12.4746L5.06738 12.4678C6.06242 12.4678 6.06698 12.4683 6.27344 12.6738C6.44733 12.847 6.48889 12.9809 6.54687 13.5234C6.57239 13.7544 6.60522 13.9648 6.61914 13.9902C6.65163 14.0526 6.76073 14.1084 6.85351 14.1084C6.92534 14.1084 6.92561 14.1056 6.91406 14.0205C6.9071 13.9743 6.87427 13.722 6.84179 13.4609L6.71777 12.4131C6.62593 11.5773 6.62745 11.3156 6.68652 11.0801C6.71436 10.9738 6.76525 10.8233 6.80469 10.7471C6.95084 10.4491 7.25016 10.16 7.57031 10.0029L7.75097 9.91309C7.75561 9.91078 7.71221 9.86459 7.65429 9.81153L7.55957 9.71778C7.34423 9.48724 7.16677 9.17593 7.06933 8.85254C7.00915 8.66121 7.00391 8.61484 7.0039 8.24121C7.0039 7.90189 7.01398 7.80915 7.05566 7.65918C7.16467 7.26198 7.3776 6.90811 7.67676 6.62403C7.99227 6.32836 8.28724 6.16885 8.71875 6.05567C8.90675 6.00714 9.1836 5.99002 9.43359 6.00586L9.66992 6.03223C10.5885 6.1939 11.2894 6.86163 11.54 7.81543C11.5766 7.95067 11.5895 8.02905 11.5937 8.22266L11.5957 8.45996C11.5957 8.81141 11.584 8.98159 11.5273 9.20118L11.4541 9.44629C11.2871 9.95431 10.9137 10.4627 10.582 10.6338C10.4058 10.7238 10.1852 10.7655 9.9834 10.7471C9.83956 10.7332 9.8164 10.7353 9.83496 10.7607C10.0113 10.9917 10.4609 11.528 10.5166 11.5742C10.556 11.6089 10.6144 11.6367 10.6445 11.6367C10.674 11.6363 11.0723 11.5372 11.5283 11.415L12.3613 11.1934L12.8896 11.2207L13.2051 10.9229C13.5481 10.6021 13.6069 10.5691 13.748 10.6289C13.8965 10.689 13.9529 10.8538 13.874 11.0039C13.8646 11.0225 13.8266 11.0674 13.7734 11.125L13.5791 11.3223L13.3213 11.5713L13.377 11.6572C13.486 11.8235 13.5165 11.9415 13.5049 12.1748C13.4933 12.4588 13.4255 12.6022 13.1982 12.8262C12.9432 13.0754 12.813 13.1337 12.0918 13.3115C11.1339 13.5471 10.7694 13.6418 10.7578 13.6533C10.7472 13.6661 10.7839 13.7543 10.8115 13.7842C10.815 13.7876 10.9222 13.7919 11.0928 13.7959L11.7529 13.8076C12.4336 13.8163 12.6195 13.8201 12.7227 13.8428L12.8135 13.8721C12.9718 13.9396 13.07 14.0038 13.6709 14.502L14.4609 15.1611C14.8104 15.4538 15.1229 15.7212 15.1543 15.7568C15.2099 15.8146 15.2216 15.8174 15.4648 15.8174H15.7207L15.9062 15.6182C16.0083 15.5097 16.1524 15.3808 16.2266 15.3301C16.3682 15.2354 16.6877 15.071 16.7852 15.0479C16.8385 15.034 16.8384 15.0341 16.792 14.9902C16.7656 14.9641 16.5202 14.761 16.2471 14.5352C15.9733 14.3065 15.6228 14.0151 15.4697 13.8857L14.6807 13.2305C14.4002 12.9997 14.141 12.7778 14.1035 12.7383C14.0687 12.6967 14.0062 12.5968 13.9668 12.5137L13.9287 12.4297C13.8997 12.3541 13.8945 12.296 13.8945 12.168C13.8922 11.9947 13.9018 11.9527 13.9668 11.8164C14.0927 11.5497 14.309 11.3821 14.585 11.332L14.707 11.3174C14.8704 11.3088 15.0092 11.3298 15.1514 11.3867L15.2959 11.4561C15.3667 11.4953 15.5638 11.6349 15.8594 11.8535L17.0127 12.7266C17.4871 13.0903 18.0056 13.484 18.5029 13.8584L19.8662 14.875C20.8119 15.5721 20.9548 15.6947 20.9883 16.2481L20.998 16.5147C21.0015 16.7276 21.0001 16.9006 20.9922 17.0059L20.9824 17.0879C20.9235 17.3607 20.7315 17.6215 20.4824 17.7783L20.3721 17.8389C20.2103 17.9168 20.0875 17.9486 19.8584 17.96L19.5879 17.9658L19.251 17.9678L19.1768 18.0879C18.7823 18.7369 17.8545 19.1246 17.082 18.9629L16.8799 18.9121C16.4163 18.7738 16.0193 18.5019 15.7695 18.1484L15.6396 17.9658L6.79297 17.9678L6.67676 18.1221C6.4494 18.4224 6.06224 18.6929 5.6748 18.8223C5.32454 18.9377 4.83525 18.9518 4.4873 18.8525L4.28906 18.7832C3.83082 18.5933 3.41373 18.2142 3.19238 17.7695C3.0439 17.4762 2.99768 17.2516 3 16.8682C3.00234 16.2723 3.17838 15.8584 3.60058 15.4473C3.78152 15.2718 4.12979 15.0323 4.2041 15.0322C4.22034 15.0322 4.22949 14.958 4.22949 14.8125V14.5957Z" fill="white"/>
</svg>
