<svg width="48" height="48" viewBox="0 0 48 48" fill="none" xmlns="http://www.w3.org/2000/svg">
<path d="M8.7619 22.1818C7.88555 22.1818 7.1311 22.4739 6.62091 22.8913C6.10923 23.3102 5.90476 23.7913 5.90476 24.2081L5.90476 39.7919C5.90476 40.2087 6.10923 40.6898 6.62091 41.1087C7.1311 41.5261 7.88555 41.8182 8.7619 41.8182L39.2381 41.8182C40.1145 41.8182 40.8689 41.5261 41.3791 41.1087C41.8908 40.6898 42.0952 40.2087 42.0952 39.7919L42.0952 24.2081C42.0952 23.7913 41.8908 23.3102 41.3791 22.8913C40.8689 22.4739 40.1145 22.1818 39.2381 22.1818L8.7619 22.1818ZM39.2381 20C40.4657 20 41.6173 20.4058 42.4859 21.1165C43.3524 21.8256 44 22.9039 44 24.2081L44 39.7919C44 41.0961 43.3524 42.1744 42.4859 42.8835C41.6173 43.5942 40.4657 44 39.2381 44L8.7619 44C7.53432 44 6.38272 43.5942 5.51414 42.8835C4.64761 42.1744 4 41.0961 4 39.7919L4 24.2081C4 22.9039 4.64761 21.8256 5.51414 21.1165C6.38272 20.4058 7.53432 20 8.7619 20L39.2381 20Z" fill="#5A5A5A"/>
<path d="M34 32C34 30.8954 34.8954 30 36 30C37.1046 30 38 30.8954 38 32L38 32.0195C38 33.1241 37.1046 34.0195 36 34.0195C34.8954 34.0195 34 33.1241 34 32.0195L34 32Z" fill="#5A5A5A"/>
<path d="M37 5.25C37 4.55964 36.4404 4 35.75 4C35.0596 4 34.5 4.55964 34.5 5.25V11.5H28.25C27.5596 11.5 27 12.0596 27 12.75C27 13.4404 27.5596 14 28.25 14H35.75C36.4404 14 37 13.4404 37 12.75V5.25Z" fill="#5A5A5A"/>
<path d="M15.4 16.9091C15.4 14.5945 16.411 12.3743 18.2114 10.7376C20.0117 9.10089 22.454 8.18182 25.0001 8.18182C27.3622 8.18428 29.64 8.97886 31.3985 10.4126L31.3997 10.4116L34.9974 13.3562C35.49 13.7592 36.2485 13.723 36.6919 13.2752C37.1352 12.8274 37.0954 12.1378 36.6028 11.7347L33.0028 8.78906L33.0017 8.788C30.8032 6.99546 27.9544 6.00273 25.0012 6H25.0001L24.4047 6.01385C21.4389 6.14767 18.6242 7.27703 16.5145 9.19496C14.264 11.2408 13 14.0158 13 16.9091C13 17.5116 13.5373 18 14.2 18C14.8627 18 15.4 17.5116 15.4 16.9091Z" fill="#5A5A5A"/>
</svg>
